<?xml version="1.0" encoding="UTF-8" standalone="no"?><svg xmlns="http://www.w3.org/2000/svg" xmlns:xlink="http://www.w3.org/1999/xlink" clip-rule="evenodd" stroke-miterlimit="10" viewBox="0 0 1024 768"><desc>SVG generated by Keynote</desc><defs></defs><g transform="matrix(1.00, 0.00, -0.00, -1.00, 0.0, 768.0)"><g><clipPath id="clip0x7ff51aa26570"><path d="M 0.0 768.0 L 1024.0 768.0 L 1024.0 0.0 L 0.0 0.0 Z M 0.0 768.0 "></path></clipPath><g clip-path="url(#clip0x7ff51aa26570)"><image xlink:href="../../BE03AB4A-F5E0-4685-80C7-20DCBC62631F/assets/574DCE55A4CF432400CBDDDE1DFDFC9B.jpeg" width="2048.00" height="1536.00" transform="matrix(0.50, 0.00, -0.00, -0.50, 0.0, 768.0)"></image></g></g><text xml:space="preserve" font-family="Courier,Courier" font-size="36.0" fill="#525252" transform="matrix(1.00, 0.00, -0.00, -1.00, 66.1, 593.0)">p</text><text xml:space="preserve" font-family="Courier,Courier" font-size="36.0" fill="#525252" transform="matrix(1.00, 0.00, -0.00, -1.00, 87.7, 593.0)">y</text><text xml:space="preserve" font-family="Courier,Courier" font-size="36.0" fill="#525252" transform="matrix(1.00, 0.00, -0.00, -1.00, 109.3, 593.0)">t</text><text xml:space="preserve" font-family="Courier,Courier" font-size="36.0" fill="#525252" transform="matrix(1.00, 0.00, -0.00, -1.00, 130.9, 593.0)">h</text><text xml:space="preserve" font-family="Courier,Courier" font-size="36.0" fill="#525252" transform="matrix(1.00, 0.00, -0.00, -1.00, 152.5, 593.0)">o</text><text xml:space="preserve" font-family="Courier,Courier" font-size="36.0" fill="#525252" transform="matrix(1.00, 0.00, -0.00, -1.00, 174.1, 593.0)">n</text><text xml:space="preserve" font-family="Courier,Courier" font-size="36.0" fill="#525252" transform="matrix(1.00, 0.00, -0.00, -1.00, 195.7, 593.0)"> </text><text xml:space="preserve" font-family="Courier,Courier" font-size="36.0" fill="#525252" transform="matrix(1.00, 0.00, -0.00, -1.00, 217.3, 593.0)">m</text><text xml:space="preserve" font-family="Courier,Courier" font-size="36.0" fill="#525252" transform="matrix(1.00, 0.00, -0.00, -1.00, 238.9, 593.0)">o</text><text xml:space="preserve" font-family="Courier,Courier" font-size="36.0" fill="#525252" transform="matrix(1.00, 0.00, -0.00, -1.00, 260.5, 593.0)">r</text><text xml:space="preserve" font-family="Courier,Courier" font-size="36.0" fill="#525252" transform="matrix(1.00, 0.00, -0.00, -1.00, 282.1, 593.0)">p</text><text xml:space="preserve" font-family="Courier,Courier" font-size="36.0" fill="#525252" transform="matrix(1.00, 0.00, -0.00, -1.00, 303.7, 593.0)">h</text><text xml:space="preserve" font-family="Courier,Courier" font-size="36.0" fill="#525252" transform="matrix(1.00, 0.00, -0.00, -1.00, 325.3, 593.0)">e</text><text xml:space="preserve" font-family="Courier,Courier" font-size="36.0" fill="#525252" transform="matrix(1.00, 0.00, -0.00, -1.00, 347.0, 593.0)">r</text><text xml:space="preserve" font-family="Courier,Courier" font-size="36.0" fill="#525252" transform="matrix(1.00, 0.00, -0.00, -1.00, 368.6, 593.0)">.</text><text xml:space="preserve" font-family="Courier,Courier" font-size="36.0" fill="#525252" transform="matrix(1.00, 0.00, -0.00, -1.00, 390.2, 593.0)">p</text><text xml:space="preserve" font-family="Courier,Courier" font-size="36.0" fill="#525252" transform="matrix(1.00, 0.00, -0.00, -1.00, 411.8, 593.0)">y</text><text xml:space="preserve" font-family="Courier,Courier" font-size="36.0" fill="#525252" transform="matrix(1.00, 0.00, -0.00, -1.00, 66.1, 550.0)"> </text><text xml:space="preserve" font-family="Courier,Courier" font-size="36.0" fill="#525252" transform="matrix(1.00, 0.00, -0.00, -1.00, 87.7, 550.0)"> </text><text xml:space="preserve" font-family="Courier,Courier" font-size="36.0" fill="#525252" transform="matrix(1.00, 0.00, -0.00, -1.00, 109.3, 550.0)"> </text><text xml:space="preserve" font-family="Courier,Courier" font-size="36.0" fill="#525252" transform="matrix(1.00, 0.00, -0.00, -1.00, 130.9, 550.0)"> </text><text xml:space="preserve" font-family="Courier,Courier" font-size="36.0" fill="#525252" transform="matrix(1.00, 0.00, -0.00, -1.00, 152.5, 550.0)">-</text><text xml:space="preserve" font-family="Courier,Courier" font-size="36.0" fill="#525252" transform="matrix(1.00, 0.00, -0.00, -1.00, 174.1, 550.0)">-</text><text xml:space="preserve" font-family="Courier,Courier" font-size="36.0" fill="#525252" transform="matrix(1.00, 0.00, -0.00, -1.00, 195.7, 550.0)">s</text><text xml:space="preserve" font-family="Courier,Courier" font-size="36.0" fill="#525252" transform="matrix(1.00, 0.00, -0.00, -1.00, 217.3, 550.0)">r</text><text xml:space="preserve" font-family="Courier,Courier" font-size="36.0" fill="#525252" transform="matrix(1.00, 0.00, -0.00, -1.00, 238.9, 550.0)">c</text><text xml:space="preserve" font-family="Courier,Courier" font-size="36.0" fill="#525252" transform="matrix(1.00, 0.00, -0.00, -1.00, 260.5, 550.0)">=</text><text xml:space="preserve" font-family="Courier,Courier" font-size="36.0" fill="#525252" transform="matrix(1.00, 0.00, -0.00, -1.00, 282.1, 550.0)">s</text><text xml:space="preserve" font-family="Courier,Courier" font-size="36.0" fill="#525252" transform="matrix(1.00, 0.00, -0.00, -1.00, 303.7, 550.0)">p</text><text xml:space="preserve" font-family="Courier,Courier" font-size="36.0" fill="#525252" transform="matrix(1.00, 0.00, -0.00, -1.00, 325.3, 550.0)">o</text><text xml:space="preserve" font-family="Courier,Courier" font-size="36.0" fill="#525252" transform="matrix(1.00, 0.00, -0.00, -1.00, 347.0, 550.0)">c</text><text xml:space="preserve" font-family="Courier,Courier" font-size="36.0" fill="#525252" transform="matrix(1.00, 0.00, -0.00, -1.00, 368.6, 550.0)">k</text><text xml:space="preserve" font-family="Courier,Courier" font-size="36.0" fill="#525252" transform="matrix(1.00, 0.00, -0.00, -1.00, 390.2, 550.0)">.</text><text xml:space="preserve" font-family="Courier,Courier" font-size="36.0" fill="#525252" transform="matrix(1.00, 0.00, -0.00, -1.00, 411.8, 550.0)">j</text><text xml:space="preserve" font-family="Courier,Courier" font-size="36.0" fill="#525252" transform="matrix(1.00, 0.00, -0.00, -1.00, 433.4, 550.0)">p</text><text xml:space="preserve" font-family="Courier,Courier" font-size="36.0" fill="#525252" transform="matrix(1.00, 0.00, -0.00, -1.00, 455.0, 550.0)">g</text><text xml:space="preserve" font-family="Courier,Courier" font-size="36.0" fill="#525252" transform="matrix(1.00, 0.00, -0.00, -1.00, 476.6, 550.0)"> </text><text xml:space="preserve" font-family="Courier,Courier" font-size="36.0" fill="#525252" transform="matrix(1.00, 0.00, -0.00, -1.00, 498.2, 550.0)">-</text><text xml:space="preserve" font-family="Courier,Courier" font-size="36.0" fill="#525252" transform="matrix(1.00, 0.00, -0.00, -1.00, 519.8, 550.0)">-</text><text xml:space="preserve" font-family="Courier,Courier" font-size="36.0" fill="#525252" transform="matrix(1.00, 0.00, -0.00, -1.00, 541.4, 550.0)">d</text><text xml:space="preserve" font-family="Courier,Courier" font-size="36.0" fill="#525252" transform="matrix(1.00, 0.00, -0.00, -1.00, 563.0, 550.0)">e</text><text xml:space="preserve" font-family="Courier,Courier" font-size="36.0" fill="#525252" transform="matrix(1.00, 0.00, -0.00, -1.00, 584.6, 550.0)">s</text><text xml:space="preserve" font-family="Courier,Courier" font-size="36.0" fill="#525252" transform="matrix(1.00, 0.00, -0.00, -1.00, 606.2, 550.0)">t</text><text xml:space="preserve" font-family="Courier,Courier" font-size="36.0" fill="#525252" transform="matrix(1.00, 0.00, -0.00, -1.00, 627.8, 550.0)">=</text><text xml:space="preserve" font-family="Courier,Courier" font-size="36.0" fill="#525252" transform="matrix(1.00, 0.00, -0.00, -1.00, 649.5, 550.0)">u</text><text xml:space="preserve" font-family="Courier,Courier" font-size="36.0" fill="#525252" transform="matrix(1.00, 0.00, -0.00, -1.00, 671.1, 550.0)">h</text><text xml:space="preserve" font-family="Courier,Courier" font-size="36.0" fill="#525252" transform="matrix(1.00, 0.00, -0.00, -1.00, 692.7, 550.0)">u</text><text xml:space="preserve" font-family="Courier,Courier" font-size="36.0" fill="#525252" transform="matrix(1.00, 0.00, -0.00, -1.00, 714.3, 550.0)">r</text><text xml:space="preserve" font-family="Courier,Courier" font-size="36.0" fill="#525252" transform="matrix(1.00, 0.00, -0.00, -1.00, 735.9, 550.0)">a</text><text xml:space="preserve" font-family="Courier,Courier" font-size="36.0" fill="#525252" transform="matrix(1.00, 0.00, -0.00, -1.00, 757.5, 550.0)">.</text><text xml:space="preserve" font-family="Courier,Courier" font-size="36.0" fill="#525252" transform="matrix(1.00, 0.00, -0.00, -1.00, 779.1, 550.0)">j</text><text xml:space="preserve" font-family="Courier,Courier" font-size="36.0" fill="#525252" transform="matrix(1.00, 0.00, -0.00, -1.00, 800.7, 550.0)">p</text><text xml:space="preserve" font-family="Courier,Courier" font-size="36.0" fill="#525252" transform="matrix(1.00, 0.00, -0.00, -1.00, 822.3, 550.0)">g</text><text xml:space="preserve" font-family="Courier,Courier" font-size="36.0" fill="#525252" transform="matrix(1.00, 0.00, -0.00, -1.00, 66.1, 507.0)"> </text><text xml:space="preserve" font-family="Courier,Courier" font-size="36.0" fill="#525252" transform="matrix(1.00, 0.00, -0.00, -1.00, 87.7, 507.0)"> </text><text xml:space="preserve" font-family="Courier,Courier" font-size="36.0" fill="#525252" transform="matrix(1.00, 0.00, -0.00, -1.00, 109.3, 507.0)"> </text><text xml:space="preserve" font-family="Courier,Courier" font-size="36.0" fill="#525252" transform="matrix(1.00, 0.00, -0.00, -1.00, 130.9, 507.0)"> </text><text xml:space="preserve" font-family="Courier,Courier" font-size="36.0" fill="#525252" transform="matrix(1.00, 0.00, -0.00, -1.00, 152.5, 507.0)">-</text><text xml:space="preserve" font-family="Courier,Courier" font-size="36.0" fill="#525252" transform="matrix(1.00, 0.00, -0.00, -1.00, 174.1, 507.0)">-</text><text xml:space="preserve" font-family="Courier,Courier" font-size="36.0" fill="#525252" transform="matrix(1.00, 0.00, -0.00, -1.00, 195.7, 507.0)">o</text><text xml:space="preserve" font-family="Courier,Courier" font-size="36.0" fill="#525252" transform="matrix(1.00, 0.00, -0.00, -1.00, 217.3, 507.0)">u</text><text xml:space="preserve" font-family="Courier,Courier" font-size="36.0" fill="#525252" transform="matrix(1.00, 0.00, -0.00, -1.00, 238.9, 507.0)">t</text><text xml:space="preserve" font-family="Courier,Courier" font-size="36.0" fill="#525252" transform="matrix(1.00, 0.00, -0.00, -1.00, 260.5, 507.0)">_</text><text xml:space="preserve" font-family="Courier,Courier" font-size="36.0" fill="#525252" transform="matrix(1.00, 0.00, -0.00, -1.00, 282.1, 507.0)">v</text><text xml:space="preserve" font-family="Courier,Courier" font-size="36.0" fill="#525252" transform="matrix(1.00, 0.00, -0.00, -1.00, 303.7, 507.0)">i</text><text xml:space="preserve" font-family="Courier,Courier" font-size="36.0" fill="#525252" transform="matrix(1.00, 0.00, -0.00, -1.00, 325.3, 507.0)">d</text><text xml:space="preserve" font-family="Courier,Courier" font-size="36.0" fill="#525252" transform="matrix(1.00, 0.00, -0.00, -1.00, 347.0, 507.0)">e</text><text xml:space="preserve" font-family="Courier,Courier" font-size="36.0" fill="#525252" transform="matrix(1.00, 0.00, -0.00, -1.00, 368.6, 507.0)">o</text><text xml:space="preserve" font-family="Courier,Courier" font-size="36.0" fill="#525252" transform="matrix(1.00, 0.00, -0.00, -1.00, 390.2, 507.0)">=</text><text xml:space="preserve" font-family="Courier,Courier" font-size="36.0" fill="#525252" transform="matrix(1.00, 0.00, -0.00, -1.00, 411.8, 507.0)">o</text><text xml:space="preserve" font-family="Courier,Courier" font-size="36.0" fill="#525252" transform="matrix(1.00, 0.00, -0.00, -1.00, 433.4, 507.0)">u</text><text xml:space="preserve" font-family="Courier,Courier" font-size="36.0" fill="#525252" transform="matrix(1.00, 0.00, -0.00, -1.00, 455.0, 507.0)">t</text><text xml:space="preserve" font-family="Courier,Courier" font-size="36.0" fill="#525252" transform="matrix(1.00, 0.00, -0.00, -1.00, 476.6, 507.0)">.</text><text xml:space="preserve" font-family="Courier,Courier" font-size="36.0" fill="#525252" transform="matrix(1.00, 0.00, -0.00, -1.00, 498.2, 507.0)">a</text><text xml:space="preserve" font-family="Courier,Courier" font-size="36.0" fill="#525252" transform="matrix(1.00, 0.00, -0.00, -1.00, 519.8, 507.0)">v</text><text xml:space="preserve" font-family="Courier,Courier" font-size="36.0" fill="#525252" transform="matrix(1.00, 0.00, -0.00, -1.00, 541.4, 507.0)">i</text><text xml:space="preserve" font-family="Courier,Courier" font-size="36.0" fill="#525252" transform="matrix(1.00, 0.00, -0.00, -1.00, 563.0, 507.0)"> </text><text xml:space="preserve" font-family="Courier,Courier" font-size="36.0" fill="#525252" transform="matrix(1.00, 0.00, -0.00, -1.00, 584.5, 507.0)">-</text><text xml:space="preserve" font-family="Courier,Courier" font-size="36.0" fill="#525252" transform="matrix(1.00, 0.00, -0.00, -1.00, 606.2, 507.0)">-</text><text xml:space="preserve" font-family="Courier,Courier" font-size="36.0" fill="#525252" transform="matrix(1.00, 0.00, -0.00, -1.00, 627.8, 507.0)">n</text><text xml:space="preserve" font-family="Courier,Courier" font-size="36.0" fill="#525252" transform="matrix(1.00, 0.00, -0.00, -1.00, 649.4, 507.0)">u</text><text xml:space="preserve" font-family="Courier,Courier" font-size="36.0" fill="#525252" transform="matrix(1.00, 0.00, -0.00, -1.00, 671.0, 507.0)">m</text><text xml:space="preserve" font-family="Courier,Courier" font-size="36.0" fill="#525252" transform="matrix(1.00, 0.00, -0.00, -1.00, 692.6, 507.0)">=</text><text xml:space="preserve" font-family="Courier,Courier" font-size="36.0" fill="#525252" transform="matrix(1.00, 0.00, -0.00, -1.00, 714.2, 507.0)">6</text><text xml:space="preserve" font-family="Courier,Courier" font-size="36.0" fill="#525252" transform="matrix(1.00, 0.00, -0.00, -1.00, 735.8, 507.0)">0</text><text xml:space="preserve" font-family="Courier,Courier" font-size="36.0" fill="#525252" transform="matrix(1.00, 0.00, -0.00, -1.00, 757.4, 507.0)"> </text><text xml:space="preserve" font-family="Courier,Courier" font-size="36.0" fill="#525252" transform="matrix(1.00, 0.00, -0.00, -1.00, 779.0, 507.0)">-</text><text xml:space="preserve" font-family="Courier,Courier" font-size="36.0" fill="#525252" transform="matrix(1.00, 0.00, -0.00, -1.00, 800.6, 507.0)">-</text><text xml:space="preserve" font-family="Courier,Courier" font-size="36.0" fill="#525252" transform="matrix(1.00, 0.00, -0.00, -1.00, 822.2, 507.0)">f</text><text xml:space="preserve" font-family="Courier,Courier" font-size="36.0" fill="#525252" transform="matrix(1.00, 0.00, -0.00, -1.00, 843.8, 507.0)">p</text><text xml:space="preserve" font-family="Courier,Courier" font-size="36.0" fill="#525252" transform="matrix(1.00, 0.00, -0.00, -1.00, 865.4, 507.0)">s</text><text xml:space="preserve" font-family="Courier,Courier" font-size="36.0" fill="#525252" transform="matrix(1.00, 0.00, -0.00, -1.00, 887.0, 507.0)">=</text><text xml:space="preserve" font-family="Courier,Courier" font-size="36.0" fill="#525252" transform="matrix(1.00, 0.00, -0.00, -1.00, 908.7, 507.0)">3</text><text xml:space="preserve" font-family="Courier,Courier" font-size="36.0" fill="#525252" transform="matrix(1.00, 0.00, -0.00, -1.00, 930.3, 507.0)">0</text><image xlink:href="F4831BE1E108DCC6F0FF0B8E8B9F2B13.png" width="700.00" height="700.00" transform="matrix(0.61, 0.00, -0.00, -0.61, 283.0, 467.5)"></image><text xml:space="preserve" font-family="GillSans-Light,Gill Sans" font-size="55.0" fill="#525252" transform="matrix(1.00, 0.00, -0.00, -1.00, 356.1, 674.1)">D</text><text xml:space="preserve" font-family="GillSans-Light,Gill Sans" font-size="55.0" fill="#525252" transform="matrix(1.00, 0.00, -0.00, -1.00, 396.9, 674.1)">e</text><text xml:space="preserve" font-family="GillSans-Light,Gill Sans" font-size="55.0" fill="#525252" transform="matrix(1.00, 0.00, -0.00, -1.00, 423.2, 674.1)">m</text><text xml:space="preserve" font-family="GillSans-Light,Gill Sans" font-size="55.0" fill="#525252" transform="matrix(1.00, 0.00, -0.00, -1.00, 465.6, 674.1)">o</text><text xml:space="preserve" font-family="GillSans-Light,Gill Sans" font-size="55.0" fill="#525252" transform="matrix(1.00, 0.00, -0.00, -1.00, 495.4, 674.1)"> </text><text xml:space="preserve" font-family="GillSans-Light,Gill Sans" font-size="55.0" fill="#525252" transform="matrix(1.00, 0.00, -0.00, -1.00, 510.7, 674.1)">M</text><text xml:space="preserve" font-family="GillSans-Light,Gill Sans" font-size="55.0" fill="#525252" transform="matrix(1.00, 0.00, -0.00, -1.00, 553.6, 674.1)">o</text><text xml:space="preserve" font-family="GillSans-Light,Gill Sans" font-size="55.0" fill="#525252" transform="matrix(1.00, 0.00, -0.00, -1.00, 583.4, 674.1)">r</text><text xml:space="preserve" font-family="GillSans-Light,Gill Sans" font-size="55.0" fill="#525252" transform="matrix(1.00, 0.00, -0.00, -1.00, 603.1, 674.1)">p</text><text xml:space="preserve" font-family="GillSans-Light,Gill Sans" font-size="55.0" fill="#525252" transform="matrix(1.00, 0.00, -0.00, -1.00, 631.1, 674.1)">h</text><text xml:space="preserve" font-family="GillSans-Light,Gill Sans" font-size="55.0" fill="#525252" transform="matrix(1.00, 0.00, -0.00, -1.00, 658.1, 674.1)">!</text></g></svg>