<?xml version="1.0" encoding="UTF-8" standalone="no"?><svg xmlns="http://www.w3.org/2000/svg" xmlns:xlink="http://www.w3.org/1999/xlink" clip-rule="evenodd" stroke-miterlimit="10" viewBox="0 0 1024 768"><desc>SVG generated by Keynote</desc><defs></defs><g transform="matrix(1.00, 0.00, -0.00, -1.00, 0.0, 768.0)"><g><clipPath id="clip0x7ff51acacf90"><path d="M 0.0 768.0 L 1024.0 768.0 L 1024.0 0.0 L 0.0 0.0 Z M 0.0 768.0 "></path></clipPath><g clip-path="url(#clip0x7ff51acacf90)"><image xlink:href="../../BE03AB4A-F5E0-4685-80C7-20DCBC62631F/assets/574DCE55A4CF432400CBDDDE1DFDFC9B.jpeg" width="2048.00" height="1536.00" transform="matrix(0.50, 0.00, -0.00, -0.50, 0.0, 768.0)"></image></g></g><text xml:space="preserve" font-family="GillSans-Light,Gill Sans" font-size="45.0" fill="#5248FF" transform="matrix(1.00, 0.00, -0.00, -1.00, 161.3, 333.7)">h</text><text xml:space="preserve" font-family="GillSans-Light,Gill Sans" font-size="45.0" fill="#5248FF" transform="matrix(1.00, 0.00, -0.00, -1.00, 183.3, 333.7)">t</text><text xml:space="preserve" font-family="GillSans-Light,Gill Sans" font-size="45.0" fill="#5248FF" transform="matrix(1.00, 0.00, -0.00, -1.00, 196.9, 333.7)">t</text><text xml:space="preserve" font-family="GillSans-Light,Gill Sans" font-size="45.0" fill="#5248FF" transform="matrix(1.00, 0.00, -0.00, -1.00, 210.5, 333.7)">p</text><text xml:space="preserve" font-family="GillSans-Light,Gill Sans" font-size="45.0" fill="#5248FF" transform="matrix(1.00, 0.00, -0.00, -1.00, 233.4, 333.7)">:</text><text xml:space="preserve" font-family="GillSans-Light,Gill Sans" font-size="45.0" fill="#5248FF" transform="matrix(1.00, 0.00, -0.00, -1.00, 241.4, 333.7)">/</text><text xml:space="preserve" font-family="GillSans-Light,Gill Sans" font-size="45.0" fill="#5248FF" transform="matrix(1.00, 0.00, -0.00, -1.00, 254.0, 333.7)">/</text><text xml:space="preserve" font-family="GillSans-Light,Gill Sans" font-size="45.0" fill="#5248FF" transform="matrix(1.00, 0.00, -0.00, -1.00, 266.6, 333.7)">g</text><text xml:space="preserve" font-family="GillSans-Light,Gill Sans" font-size="45.0" fill="#5248FF" transform="matrix(1.00, 0.00, -0.00, -1.00, 285.8, 333.7)">i</text><text xml:space="preserve" font-family="GillSans-Light,Gill Sans" font-size="45.0" fill="#5248FF" transform="matrix(1.00, 0.00, -0.00, -1.00, 294.3, 333.7)">t</text><text xml:space="preserve" font-family="GillSans-Light,Gill Sans" font-size="45.0" fill="#5248FF" transform="matrix(1.00, 0.00, -0.00, -1.00, 307.8, 333.7)">h</text><text xml:space="preserve" font-family="GillSans-Light,Gill Sans" font-size="45.0" fill="#5248FF" transform="matrix(1.00, 0.00, -0.00, -1.00, 329.9, 333.7)">u</text><text xml:space="preserve" font-family="GillSans-Light,Gill Sans" font-size="45.0" fill="#5248FF" transform="matrix(1.00, 0.00, -0.00, -1.00, 352.0, 333.7)">b</text><text xml:space="preserve" font-family="GillSans-Light,Gill Sans" font-size="45.0" fill="#5248FF" transform="matrix(1.00, 0.00, -0.00, -1.00, 374.0, 333.7)">.</text><text xml:space="preserve" font-family="GillSans-Light,Gill Sans" font-size="45.0" fill="#5248FF" transform="matrix(1.00, 0.00, -0.00, -1.00, 381.9, 333.7)">c</text><text xml:space="preserve" font-family="GillSans-Light,Gill Sans" font-size="45.0" fill="#5248FF" transform="matrix(1.00, 0.00, -0.00, -1.00, 400.7, 333.7)">o</text><text xml:space="preserve" font-family="GillSans-Light,Gill Sans" font-size="45.0" fill="#5248FF" transform="matrix(1.00, 0.00, -0.00, -1.00, 425.1, 333.7)">m</text><text xml:space="preserve" font-family="GillSans-Light,Gill Sans" font-size="45.0" fill="#5248FF" transform="matrix(1.00, 0.00, -0.00, -1.00, 459.8, 333.7)">/</text><text xml:space="preserve" font-family="GillSans-Light,Gill Sans" font-size="45.0" fill="#5248FF" transform="matrix(1.00, 0.00, -0.00, -1.00, 472.4, 333.7)">a</text><text xml:space="preserve" font-family="GillSans-Light,Gill Sans" font-size="45.0" fill="#5248FF" transform="matrix(1.00, 0.00, -0.00, -1.00, 491.6, 333.7)">l</text><text xml:space="preserve" font-family="GillSans-Light,Gill Sans" font-size="45.0" fill="#5248FF" transform="matrix(1.00, 0.00, -0.00, -1.00, 499.6, 333.7)">y</text><text xml:space="preserve" font-family="GillSans-Light,Gill Sans" font-size="45.0" fill="#5248FF" transform="matrix(1.00, 0.00, -0.00, -1.00, 518.4, 333.7)">s</text><text xml:space="preserve" font-family="GillSans-Light,Gill Sans" font-size="45.0" fill="#5248FF" transform="matrix(1.00, 0.00, -0.00, -1.00, 534.3, 333.7)">s</text><text xml:space="preserve" font-family="GillSans-Light,Gill Sans" font-size="45.0" fill="#5248FF" transform="matrix(1.00, 0.00, -0.00, -1.00, 550.3, 333.7)">a</text><text xml:space="preserve" font-family="GillSans-Light,Gill Sans" font-size="45.0" fill="#5248FF" transform="matrix(1.00, 0.00, -0.00, -1.00, 569.5, 333.7)">q</text><text xml:space="preserve" font-family="GillSans-Light,Gill Sans" font-size="45.0" fill="#5248FF" transform="matrix(1.00, 0.00, -0.00, -1.00, 592.4, 333.7)">/</text><text xml:space="preserve" font-family="GillSans-Light,Gill Sans" font-size="45.0" fill="#5248FF" transform="matrix(1.00, 0.00, -0.00, -1.00, 605.0, 333.7)">f</text><text xml:space="preserve" font-family="GillSans-Light,Gill Sans" font-size="45.0" fill="#5248FF" transform="matrix(1.00, 0.00, -0.00, -1.00, 615.8, 333.7)">a</text><text xml:space="preserve" font-family="GillSans-Light,Gill Sans" font-size="45.0" fill="#5248FF" transform="matrix(1.00, 0.00, -0.00, -1.00, 635.0, 333.7)">c</text><text xml:space="preserve" font-family="GillSans-Light,Gill Sans" font-size="45.0" fill="#5248FF" transform="matrix(1.00, 0.00, -0.00, -1.00, 653.8, 333.7)">e</text><text xml:space="preserve" font-family="GillSans-Light,Gill Sans" font-size="45.0" fill="#5248FF" transform="matrix(1.00, 0.00, -0.00, -1.00, 675.3, 333.7)">_</text><text xml:space="preserve" font-family="GillSans-Light,Gill Sans" font-size="45.0" fill="#5248FF" transform="matrix(1.00, 0.00, -0.00, -1.00, 697.8, 333.7)">m</text><text xml:space="preserve" font-family="GillSans-Light,Gill Sans" font-size="45.0" fill="#5248FF" transform="matrix(1.00, 0.00, -0.00, -1.00, 732.5, 333.7)">o</text><text xml:space="preserve" font-family="GillSans-Light,Gill Sans" font-size="45.0" fill="#5248FF" transform="matrix(1.00, 0.00, -0.00, -1.00, 756.9, 333.7)">r</text><text xml:space="preserve" font-family="GillSans-Light,Gill Sans" font-size="45.0" fill="#5248FF" transform="matrix(1.00, 0.00, -0.00, -1.00, 773.0, 333.7)">p</text><text xml:space="preserve" font-family="GillSans-Light,Gill Sans" font-size="45.0" fill="#5248FF" transform="matrix(1.00, 0.00, -0.00, -1.00, 796.0, 333.7)">h</text><text xml:space="preserve" font-family="GillSans-Light,Gill Sans" font-size="45.0" fill="#5248FF" transform="matrix(1.00, 0.00, -0.00, -1.00, 818.0, 333.7)">e</text><text xml:space="preserve" font-family="GillSans-Light,Gill Sans" font-size="45.0" fill="#5248FF" transform="matrix(1.00, 0.00, -0.00, -1.00, 839.6, 333.7)">r</text><g><clipPath id="clip0x7ff51ab8ea40"><path d="M 160.3 328.2 L 854.7 328.2 L 854.7 332.5 L 160.3 332.5 Z M 160.3 328.2 "></path></clipPath><g clip-path="url(#clip0x7ff51ab8ea40)"><path d="M 124.3 221.7 L 817.7 221.7 " fill="none" stroke="#5248FF" stroke-width="2.24" transform="matrix(1.00, 0.00, 0.00, -1.00, 37.0, 552.0)"></path></g></g><text xml:space="preserve" font-family="GillSans-Light,Gill Sans" font-size="55.0" fill="#525252" transform="matrix(1.00, 0.00, -0.00, -1.00, 297.2, 639.2)">Q</text><text xml:space="preserve" font-family="GillSans-Light,Gill Sans" font-size="55.0" fill="#525252" transform="matrix(1.00, 0.00, -0.00, -1.00, 342.5, 639.2)">u</text><text xml:space="preserve" font-family="GillSans-Light,Gill Sans" font-size="55.0" fill="#525252" transform="matrix(1.00, 0.00, -0.00, -1.00, 369.4, 639.2)">i</text><text xml:space="preserve" font-family="GillSans-Light,Gill Sans" font-size="55.0" fill="#525252" transform="matrix(1.00, 0.00, -0.00, -1.00, 379.8, 639.2)">c</text><text xml:space="preserve" font-family="GillSans-Light,Gill Sans" font-size="55.0" fill="#525252" transform="matrix(1.00, 0.00, -0.00, -1.00, 402.7, 639.2)">k</text><text xml:space="preserve" font-family="GillSans-Light,Gill Sans" font-size="55.0" fill="#525252" transform="matrix(1.00, 0.00, -0.00, -1.00, 426.2, 639.2)"> </text><text xml:space="preserve" font-family="GillSans-Light,Gill Sans" font-size="55.0" fill="#525252" transform="matrix(1.00, 0.00, -0.00, -1.00, 435.9, 639.2)">W</text><text xml:space="preserve" font-family="GillSans-Light,Gill Sans" font-size="55.0" fill="#525252" transform="matrix(1.00, 0.00, -0.00, -1.00, 490.4, 639.2)">a</text><text xml:space="preserve" font-family="GillSans-Light,Gill Sans" font-size="55.0" fill="#525252" transform="matrix(1.00, 0.00, -0.00, -1.00, 513.9, 639.2)">l</text><text xml:space="preserve" font-family="GillSans-Light,Gill Sans" font-size="55.0" fill="#525252" transform="matrix(1.00, 0.00, -0.00, -1.00, 524.2, 639.2)">k</text><text xml:space="preserve" font-family="GillSans-Light,Gill Sans" font-size="55.0" fill="#525252" transform="matrix(1.00, 0.00, -0.00, -1.00, 547.7, 639.2)">t</text><text xml:space="preserve" font-family="GillSans-Light,Gill Sans" font-size="55.0" fill="#525252" transform="matrix(1.00, 0.00, -0.00, -1.00, 564.3, 639.2)">h</text><text xml:space="preserve" font-family="GillSans-Light,Gill Sans" font-size="55.0" fill="#525252" transform="matrix(1.00, 0.00, -0.00, -1.00, 591.2, 639.2)">r</text><text xml:space="preserve" font-family="GillSans-Light,Gill Sans" font-size="55.0" fill="#525252" transform="matrix(1.00, 0.00, -0.00, -1.00, 609.5, 639.2)">o</text><text xml:space="preserve" font-family="GillSans-Light,Gill Sans" font-size="55.0" fill="#525252" transform="matrix(1.00, 0.00, -0.00, -1.00, 639.4, 639.2)">u</text><text xml:space="preserve" font-family="GillSans-Light,Gill Sans" font-size="55.0" fill="#525252" transform="matrix(1.00, 0.00, -0.00, -1.00, 666.3, 639.2)">g</text><text xml:space="preserve" font-family="GillSans-Light,Gill Sans" font-size="55.0" fill="#525252" transform="matrix(1.00, 0.00, -0.00, -1.00, 689.8, 639.2)">h</text><image xlink:href="../../BE03AB4A-F5E0-4685-80C7-20DCBC62631F/assets/90E74410BD8CFA3E16FFE2B5C789FE8D.png" width="256.00" height="256.00" transform="matrix(0.34, 0.00, -0.00, -0.34, 450.0, 472.0)"></image></g></svg>