<?xml version="1.0" encoding="UTF-8" standalone="no"?><svg xmlns="http://www.w3.org/2000/svg" xmlns:xlink="http://www.w3.org/1999/xlink" clip-rule="evenodd" stroke-miterlimit="10" viewBox="0 0 1024 768"><desc>SVG generated by Keynote</desc><defs></defs><g transform="matrix(1.00, 0.00, -0.00, -1.00, 0.0, 768.0)"><g><clipPath id="clip0x7ff519489410"><path d="M 0.0 768.0 L 1024.0 768.0 L 1024.0 0.0 L 0.0 0.0 Z M 0.0 768.0 "></path></clipPath><g clip-path="url(#clip0x7ff519489410)"><image xlink:href="../../BE03AB4A-F5E0-4685-80C7-20DCBC62631F/assets/574DCE55A4CF432400CBDDDE1DFDFC9B.jpeg" width="2048.00" height="1536.00" transform="matrix(0.50, 0.00, -0.00, -0.50, 0.0, 768.0)"></image></g></g><text xml:space="preserve" font-family="GillSans-Light,Gill Sans" font-size="55.0" fill="#525252" transform="matrix(1.00, 0.00, -0.00, -1.00, 341.9, 682.1)">S</text><text xml:space="preserve" font-family="GillSans-Light,Gill Sans" font-size="55.0" fill="#525252" transform="matrix(1.00, 0.00, -0.00, -1.00, 367.7, 682.1)">t</text><text xml:space="preserve" font-family="GillSans-Light,Gill Sans" font-size="55.0" fill="#525252" transform="matrix(1.00, 0.00, -0.00, -1.00, 384.3, 682.1)">e</text><text xml:space="preserve" font-family="GillSans-Light,Gill Sans" font-size="55.0" fill="#525252" transform="matrix(1.00, 0.00, -0.00, -1.00, 410.6, 682.1)">p</text><text xml:space="preserve" font-family="GillSans-Light,Gill Sans" font-size="55.0" fill="#525252" transform="matrix(1.00, 0.00, -0.00, -1.00, 438.6, 682.1)"> </text><text xml:space="preserve" font-family="GillSans-Light,Gill Sans" font-size="55.0" fill="#525252" transform="matrix(1.00, 0.00, -0.00, -1.00, 453.9, 682.1)">3</text><text xml:space="preserve" font-family="GillSans-Light,Gill Sans" font-size="55.0" fill="#525252" transform="matrix(1.00, 0.00, -0.00, -1.00, 481.4, 682.1)">:</text><text xml:space="preserve" font-family="GillSans-Light,Gill Sans" font-size="55.0" fill="#525252" transform="matrix(1.00, 0.00, -0.00, -1.00, 486.7, 682.1)"> </text><text xml:space="preserve" font-family="GillSans-Light,Gill Sans" font-size="55.0" fill="#525252" transform="matrix(1.00, 0.00, -0.00, -1.00, 502.0, 682.1)"> </text><text xml:space="preserve" font-family="GillSans-Light,Gill Sans" font-size="55.0" fill="#525252" transform="matrix(1.00, 0.00, -0.00, -1.00, 511.7, 682.1)">W</text><text xml:space="preserve" font-family="GillSans-Light,Gill Sans" font-size="55.0" fill="#525252" transform="matrix(1.00, 0.00, -0.00, -1.00, 566.2, 682.1)">a</text><text xml:space="preserve" font-family="GillSans-Light,Gill Sans" font-size="55.0" fill="#525252" transform="matrix(1.00, 0.00, -0.00, -1.00, 589.7, 682.1)">r</text><text xml:space="preserve" font-family="GillSans-Light,Gill Sans" font-size="55.0" fill="#525252" transform="matrix(1.00, 0.00, -0.00, -1.00, 609.4, 682.1)">p</text><text xml:space="preserve" font-family="GillSans-Light,Gill Sans" font-size="55.0" fill="#525252" transform="matrix(1.00, 0.00, -0.00, -1.00, 637.4, 682.1)">e</text><text xml:space="preserve" font-family="GillSans-Light,Gill Sans" font-size="55.0" fill="#525252" transform="matrix(1.00, 0.00, -0.00, -1.00, 663.7, 682.1)">r</text><text xml:space="preserve" font-family="GillSans-Light,Gill Sans" font-size="38.0" fill="#525252" transform="matrix(1.00, 0.00, -0.00, -1.00, 51.0, 434.7)">T</text><text xml:space="preserve" font-family="GillSans-Light,Gill Sans" font-size="38.0" fill="#525252" transform="matrix(1.00, 0.00, -0.00, -1.00, 69.0, 434.7)">r</text><text xml:space="preserve" font-family="GillSans-Light,Gill Sans" font-size="38.0" fill="#525252" transform="matrix(1.00, 0.00, -0.00, -1.00, 82.6, 434.7)">i</text><text xml:space="preserve" font-family="GillSans-Light,Gill Sans" font-size="38.0" fill="#525252" transform="matrix(1.00, 0.00, -0.00, -1.00, 89.8, 434.7)">a</text><text xml:space="preserve" font-family="GillSans-Light,Gill Sans" font-size="38.0" fill="#525252" transform="matrix(1.00, 0.00, -0.00, -1.00, 106.0, 434.7)">n</text><text xml:space="preserve" font-family="GillSans-Light,Gill Sans" font-size="38.0" fill="#525252" transform="matrix(1.00, 0.00, -0.00, -1.00, 124.6, 434.7)">g</text><text xml:space="preserve" font-family="GillSans-Light,Gill Sans" font-size="38.0" fill="#525252" transform="matrix(1.00, 0.00, -0.00, -1.00, 140.8, 434.7)">u</text><text xml:space="preserve" font-family="GillSans-Light,Gill Sans" font-size="38.0" fill="#525252" transform="matrix(1.00, 0.00, -0.00, -1.00, 159.5, 434.7)">l</text><text xml:space="preserve" font-family="GillSans-Light,Gill Sans" font-size="38.0" fill="#525252" transform="matrix(1.00, 0.00, -0.00, -1.00, 166.6, 434.7)">a</text><text xml:space="preserve" font-family="GillSans-Light,Gill Sans" font-size="38.0" fill="#525252" transform="matrix(1.00, 0.00, -0.00, -1.00, 182.8, 434.7)">t</text><text xml:space="preserve" font-family="GillSans-Light,Gill Sans" font-size="38.0" fill="#525252" transform="matrix(1.00, 0.00, -0.00, -1.00, 194.3, 434.7)">e</text><text xml:space="preserve" font-family="GillSans-Light,Gill Sans" font-size="38.0" fill="#525252" transform="matrix(1.00, 0.00, -0.00, -1.00, 212.5, 434.7)"> </text><text xml:space="preserve" font-family="GillSans-Light,Gill Sans" font-size="38.0" fill="#525252" transform="matrix(1.00, 0.00, -0.00, -1.00, 223.0, 434.7)">p</text><text xml:space="preserve" font-family="GillSans-Light,Gill Sans" font-size="38.0" fill="#525252" transform="matrix(1.00, 0.00, -0.00, -1.00, 242.4, 434.7)">o</text><text xml:space="preserve" font-family="GillSans-Light,Gill Sans" font-size="38.0" fill="#525252" transform="matrix(1.00, 0.00, -0.00, -1.00, 263.0, 434.7)">i</text><text xml:space="preserve" font-family="GillSans-Light,Gill Sans" font-size="38.0" fill="#525252" transform="matrix(1.00, 0.00, -0.00, -1.00, 270.1, 434.7)">n</text><text xml:space="preserve" font-family="GillSans-Light,Gill Sans" font-size="38.0" fill="#525252" transform="matrix(1.00, 0.00, -0.00, -1.00, 288.8, 434.7)">t</text><text xml:space="preserve" font-family="GillSans-Light,Gill Sans" font-size="38.0" fill="#525252" transform="matrix(1.00, 0.00, -0.00, -1.00, 300.2, 434.7)">s</text><text xml:space="preserve" font-family="LucidaGrande,Lucida Grande" font-size="38.0" fill="#525252" transform="matrix(1.00, 0.00, -0.00, -1.00, 313.7, 434.7)"> </text><text xml:space="preserve" font-family="GillSans-Light,Gill Sans" font-size="38.0" fill="#525252" transform="matrix(1.00, 0.00, -0.00, -1.00, 51.0, 391.7)">(</text><text xml:space="preserve" font-family="GillSans-Light,Gill Sans" font-size="38.0" fill="#525252" transform="matrix(1.00, 0.00, -0.00, -1.00, 63.7, 391.7)">D</text><text xml:space="preserve" font-family="GillSans-Light,Gill Sans" font-size="38.0" fill="#525252" transform="matrix(1.00, 0.00, -0.00, -1.00, 91.8, 391.7)">e</text><text xml:space="preserve" font-family="GillSans-Light,Gill Sans" font-size="38.0" fill="#525252" transform="matrix(1.00, 0.00, -0.00, -1.00, 110.0, 391.7)">l</text><text xml:space="preserve" font-family="GillSans-Light,Gill Sans" font-size="38.0" fill="#525252" transform="matrix(1.00, 0.00, -0.00, -1.00, 117.2, 391.7)">a</text><text xml:space="preserve" font-family="GillSans-Light,Gill Sans" font-size="38.0" fill="#525252" transform="matrix(1.00, 0.00, -0.00, -1.00, 133.4, 391.7)">u</text><text xml:space="preserve" font-family="GillSans-Light,Gill Sans" font-size="38.0" fill="#525252" transform="matrix(1.00, 0.00, -0.00, -1.00, 152.0, 391.7)">n</text><text xml:space="preserve" font-family="GillSans-Light,Gill Sans" font-size="38.0" fill="#525252" transform="matrix(1.00, 0.00, -0.00, -1.00, 170.7, 391.7)">a</text><text xml:space="preserve" font-family="GillSans-Light,Gill Sans" font-size="38.0" fill="#525252" transform="matrix(1.00, 0.00, -0.00, -1.00, 186.3, 391.7)">y</text><text xml:space="preserve" font-family="GillSans-Light,Gill Sans" font-size="38.0" fill="#525252" transform="matrix(1.00, 0.00, -0.00, -1.00, 202.1, 391.7)"> </text><text xml:space="preserve" font-family="GillSans-Light,Gill Sans" font-size="38.0" fill="#525252" transform="matrix(1.00, 0.00, -0.00, -1.00, 212.7, 391.7)">t</text><text xml:space="preserve" font-family="GillSans-Light,Gill Sans" font-size="38.0" fill="#525252" transform="matrix(1.00, 0.00, -0.00, -1.00, 224.1, 391.7)">r</text><text xml:space="preserve" font-family="GillSans-Light,Gill Sans" font-size="38.0" fill="#525252" transform="matrix(1.00, 0.00, -0.00, -1.00, 237.7, 391.7)">i</text><text xml:space="preserve" font-family="GillSans-Light,Gill Sans" font-size="38.0" fill="#525252" transform="matrix(1.00, 0.00, -0.00, -1.00, 244.9, 391.7)">a</text><text xml:space="preserve" font-family="GillSans-Light,Gill Sans" font-size="38.0" fill="#525252" transform="matrix(1.00, 0.00, -0.00, -1.00, 261.1, 391.7)">n</text><text xml:space="preserve" font-family="GillSans-Light,Gill Sans" font-size="38.0" fill="#525252" transform="matrix(1.00, 0.00, -0.00, -1.00, 279.7, 391.7)">g</text><text xml:space="preserve" font-family="GillSans-Light,Gill Sans" font-size="38.0" fill="#525252" transform="matrix(1.00, 0.00, -0.00, -1.00, 295.9, 391.7)">u</text><text xml:space="preserve" font-family="GillSans-Light,Gill Sans" font-size="38.0" fill="#525252" transform="matrix(1.00, 0.00, -0.00, -1.00, 314.6, 391.7)">l</text><text xml:space="preserve" font-family="GillSans-Light,Gill Sans" font-size="38.0" fill="#525252" transform="matrix(1.00, 0.00, -0.00, -1.00, 321.7, 391.7)">a</text><text xml:space="preserve" font-family="GillSans-Light,Gill Sans" font-size="38.0" fill="#525252" transform="matrix(1.00, 0.00, -0.00, -1.00, 337.9, 391.7)">t</text><text xml:space="preserve" font-family="GillSans-Light,Gill Sans" font-size="38.0" fill="#525252" transform="matrix(1.00, 0.00, -0.00, -1.00, 349.4, 391.7)">i</text><text xml:space="preserve" font-family="GillSans-Light,Gill Sans" font-size="38.0" fill="#525252" transform="matrix(1.00, 0.00, -0.00, -1.00, 356.5, 391.7)">o</text><text xml:space="preserve" font-family="GillSans-Light,Gill Sans" font-size="38.0" fill="#525252" transform="matrix(1.00, 0.00, -0.00, -1.00, 377.1, 391.7)">n</text><text xml:space="preserve" font-family="GillSans-Light,Gill Sans" font-size="38.0" fill="#525252" transform="matrix(1.00, 0.00, -0.00, -1.00, 395.8, 391.7)">)</text><text xml:space="preserve" font-family="Courier,Courier" font-size="28.0" fill="#525252" transform="matrix(1.00, 0.00, -0.00, -1.00, 51.0, 317.5)">s</text><text xml:space="preserve" font-family="Courier,Courier" font-size="28.0" fill="#525252" transform="matrix(1.00, 0.00, -0.00, -1.00, 67.8, 317.5)">c</text><text xml:space="preserve" font-family="Courier,Courier" font-size="28.0" fill="#525252" transform="matrix(1.00, 0.00, -0.00, -1.00, 84.6, 317.5)">i</text><text xml:space="preserve" font-family="Courier,Courier" font-size="28.0" fill="#525252" transform="matrix(1.00, 0.00, -0.00, -1.00, 101.5, 317.5)">p</text><text xml:space="preserve" font-family="Courier,Courier" font-size="28.0" fill="#525252" transform="matrix(1.00, 0.00, -0.00, -1.00, 118.3, 317.5)">y</text><text xml:space="preserve" font-family="Courier,Courier" font-size="28.0" fill="#525252" transform="matrix(1.00, 0.00, -0.00, -1.00, 135.1, 317.5)">.</text><text xml:space="preserve" font-family="Courier,Courier" font-size="28.0" fill="#525252" transform="matrix(1.00, 0.00, -0.00, -1.00, 151.9, 317.5)">s</text><text xml:space="preserve" font-family="Courier,Courier" font-size="28.0" fill="#525252" transform="matrix(1.00, 0.00, -0.00, -1.00, 168.7, 317.5)">p</text><text xml:space="preserve" font-family="Courier,Courier" font-size="28.0" fill="#525252" transform="matrix(1.00, 0.00, -0.00, -1.00, 185.5, 317.5)">a</text><text xml:space="preserve" font-family="Courier,Courier" font-size="28.0" fill="#525252" transform="matrix(1.00, 0.00, -0.00, -1.00, 202.3, 317.5)">t</text><text xml:space="preserve" font-family="Courier,Courier" font-size="28.0" fill="#525252" transform="matrix(1.00, 0.00, -0.00, -1.00, 219.1, 317.5)">i</text><text xml:space="preserve" font-family="Courier,Courier" font-size="28.0" fill="#525252" transform="matrix(1.00, 0.00, -0.00, -1.00, 235.9, 317.5)">a</text><text xml:space="preserve" font-family="Courier,Courier" font-size="28.0" fill="#525252" transform="matrix(1.00, 0.00, -0.00, -1.00, 252.7, 317.5)">l</text><text xml:space="preserve" font-family="Courier,Courier" font-size="28.0" fill="#525252" transform="matrix(1.00, 0.00, -0.00, -1.00, 269.5, 317.5)">.</text><text xml:space="preserve" font-family="Courier,Courier" font-size="28.0" fill="#525252" transform="matrix(1.00, 0.00, -0.00, -1.00, 286.3, 317.5)">D</text><text xml:space="preserve" font-family="Courier,Courier" font-size="28.0" fill="#525252" transform="matrix(1.00, 0.00, -0.00, -1.00, 303.1, 317.5)">e</text><text xml:space="preserve" font-family="Courier,Courier" font-size="28.0" fill="#525252" transform="matrix(1.00, 0.00, -0.00, -1.00, 319.9, 317.5)">l</text><text xml:space="preserve" font-family="Courier,Courier" font-size="28.0" fill="#525252" transform="matrix(1.00, 0.00, -0.00, -1.00, 336.7, 317.5)">a</text><text xml:space="preserve" font-family="Courier,Courier" font-size="28.0" fill="#525252" transform="matrix(1.00, 0.00, -0.00, -1.00, 353.5, 317.5)">u</text><text xml:space="preserve" font-family="Courier,Courier" font-size="28.0" fill="#525252" transform="matrix(1.00, 0.00, -0.00, -1.00, 370.3, 317.5)">n</text><text xml:space="preserve" font-family="Courier,Courier" font-size="28.0" fill="#525252" transform="matrix(1.00, 0.00, -0.00, -1.00, 387.1, 317.5)">a</text><text xml:space="preserve" font-family="Courier,Courier" font-size="28.0" fill="#525252" transform="matrix(1.00, 0.00, -0.00, -1.00, 404.0, 317.5)">y</text><text xml:space="preserve" font-family="Courier,Courier" font-size="28.0" fill="#525252" transform="matrix(1.00, 0.00, -0.00, -1.00, 420.8, 317.5)">(</text><text xml:space="preserve" font-family="Courier,Courier" font-size="28.0" fill="#525252" transform="matrix(1.00, 0.00, -0.00, -1.00, 437.6, 317.5)">p</text><text xml:space="preserve" font-family="Courier,Courier" font-size="28.0" fill="#525252" transform="matrix(1.00, 0.00, -0.00, -1.00, 454.4, 317.5)">o</text><text xml:space="preserve" font-family="Courier,Courier" font-size="28.0" fill="#525252" transform="matrix(1.00, 0.00, -0.00, -1.00, 471.2, 317.5)">i</text><text xml:space="preserve" font-family="Courier,Courier" font-size="28.0" fill="#525252" transform="matrix(1.00, 0.00, -0.00, -1.00, 488.0, 317.5)">n</text><text xml:space="preserve" font-family="Courier,Courier" font-size="28.0" fill="#525252" transform="matrix(1.00, 0.00, -0.00, -1.00, 504.8, 317.5)">t</text><text xml:space="preserve" font-family="Courier,Courier" font-size="28.0" fill="#525252" transform="matrix(1.00, 0.00, -0.00, -1.00, 521.6, 317.5)">s</text><text xml:space="preserve" font-family="Courier,Courier" font-size="28.0" fill="#525252" transform="matrix(1.00, 0.00, -0.00, -1.00, 538.4, 317.5)">)</text><g><clipPath id="clip0x7ff5194a33d0"><path d="M 576.0 622.0 L 979.0 622.0 L 979.0 93.0 L 576.0 93.0 Z M 576.4 621.9 "></path></clipPath><g clip-path="url(#clip0x7ff5194a33d0)"><image xlink:href="../../C80373BC-A7E0-43F2-AB45-20F727A3291E/assets/B22F00E39D0685B9B20C553A8D996FBA.jpeg" width="758.00" height="1009.00" transform="matrix(0.61, 0.00, -0.00, -0.61, 546.0, 634.0)"></image></g></g></g></svg>