<?xml version="1.0" encoding="UTF-8" standalone="no"?><svg xmlns="http://www.w3.org/2000/svg" xmlns:xlink="http://www.w3.org/1999/xlink" clip-rule="evenodd" stroke-miterlimit="10" viewBox="0 0 154 36"><desc>SVG generated by Keynote</desc><defs></defs><g transform="matrix(1.00, 0.00, -0.00, -1.00, 0.0, 36.0)"><text xml:space="preserve" font-family="GillSans-Light,Gill Sans" font-size="36.9" fill="#525252" transform="matrix(1.00, 0.00, -0.00, -1.00, 0.3, 9.8)">a</text><text xml:space="preserve" font-family="GillSans-Light,Gill Sans" font-size="36.9" fill="#525252" transform="matrix(1.00, 0.00, -0.00, -1.00, 16.0, 9.8)">l</text><text xml:space="preserve" font-family="GillSans-Light,Gill Sans" font-size="36.9" fill="#525252" transform="matrix(1.00, 0.00, -0.00, -1.00, 22.6, 9.8)">y</text><text xml:space="preserve" font-family="GillSans-Light,Gill Sans" font-size="36.9" fill="#525252" transform="matrix(1.00, 0.00, -0.00, -1.00, 37.9, 9.8)">s</text><text xml:space="preserve" font-family="GillSans-Light,Gill Sans" font-size="36.9" fill="#525252" transform="matrix(1.00, 0.00, -0.00, -1.00, 51.0, 9.8)">s</text><text xml:space="preserve" font-family="GillSans-Light,Gill Sans" font-size="36.9" fill="#525252" transform="matrix(1.00, 0.00, -0.00, -1.00, 64.0, 9.8)">a</text><text xml:space="preserve" font-family="GillSans-Light,Gill Sans" font-size="36.9" fill="#525252" transform="matrix(1.00, 0.00, -0.00, -1.00, 79.8, 9.8)">q</text><text xml:space="preserve" font-family="GillSans-Light,Gill Sans" font-size="36.9" fill="#525252" transform="matrix(1.00, 0.00, -0.00, -1.00, 98.5, 9.8)">u</text><text xml:space="preserve" font-family="GillSans-Light,Gill Sans" font-size="36.9" fill="#525252" transform="matrix(1.00, 0.00, -0.00, -1.00, 116.6, 9.8)">e</text><text xml:space="preserve" font-family="GillSans-Light,Gill Sans" font-size="36.9" fill="#525252" transform="matrix(1.00, 0.00, -0.00, -1.00, 134.3, 9.8)">k</text></g></svg>