<?xml version="1.0" encoding="UTF-8" standalone="no"?><svg xmlns="http://www.w3.org/2000/svg" xmlns:xlink="http://www.w3.org/1999/xlink" clip-rule="evenodd" stroke-miterlimit="10" viewBox="0 0 317 38"><desc>SVG generated by Keynote</desc><defs></defs><g transform="matrix(1.00, 0.00, -0.00, -1.00, 0.0, 38.0)"><text xml:space="preserve" font-family="GillSans-Light,Gill Sans" font-size="36.9" fill="#525252" transform="matrix(1.00, 0.00, -0.00, -1.00, 0.3, 10.6)">a</text><text xml:space="preserve" font-family="GillSans-Light,Gill Sans" font-size="36.9" fill="#525252" transform="matrix(1.00, 0.00, -0.00, -1.00, 16.0, 10.6)">l</text><text xml:space="preserve" font-family="GillSans-Light,Gill Sans" font-size="36.9" fill="#525252" transform="matrix(1.00, 0.00, -0.00, -1.00, 22.6, 10.6)">y</text><text xml:space="preserve" font-family="GillSans-Light,Gill Sans" font-size="36.9" fill="#525252" transform="matrix(1.00, 0.00, -0.00, -1.00, 37.9, 10.6)">s</text><text xml:space="preserve" font-family="GillSans-Light,Gill Sans" font-size="36.9" fill="#525252" transform="matrix(1.00, 0.00, -0.00, -1.00, 51.0, 10.6)">s</text><text xml:space="preserve" font-family="GillSans-Light,Gill Sans" font-size="36.9" fill="#525252" transform="matrix(1.00, 0.00, -0.00, -1.00, 64.0, 10.6)">a</text><text xml:space="preserve" font-family="GillSans-Light,Gill Sans" font-size="36.9" fill="#525252" transform="matrix(1.00, 0.00, -0.00, -1.00, 79.8, 10.6)">q</text><text xml:space="preserve" font-family="GillSans-Light,Gill Sans" font-size="36.9" fill="#525252" transform="matrix(1.00, 0.00, -0.00, -1.00, 98.5, 10.6)">/</text><text xml:space="preserve" font-family="GillSans-Light,Gill Sans" font-size="36.9" fill="#525252" transform="matrix(1.00, 0.00, -0.00, -1.00, 108.9, 10.6)">f</text><text xml:space="preserve" font-family="GillSans-Light,Gill Sans" font-size="36.9" fill="#525252" transform="matrix(1.00, 0.00, -0.00, -1.00, 117.7, 10.6)">a</text><text xml:space="preserve" font-family="GillSans-Light,Gill Sans" font-size="36.9" fill="#525252" transform="matrix(1.00, 0.00, -0.00, -1.00, 133.5, 10.6)">c</text><text xml:space="preserve" font-family="GillSans-Light,Gill Sans" font-size="36.9" fill="#525252" transform="matrix(1.00, 0.00, -0.00, -1.00, 148.8, 10.6)">e</text><text xml:space="preserve" font-family="GillSans-Light,Gill Sans" font-size="36.9" fill="#525252" transform="matrix(1.00, 0.00, -0.00, -1.00, 166.5, 10.6)">_</text><text xml:space="preserve" font-family="GillSans-Light,Gill Sans" font-size="36.9" fill="#525252" transform="matrix(1.00, 0.00, -0.00, -1.00, 184.9, 10.6)">m</text><text xml:space="preserve" font-family="GillSans-Light,Gill Sans" font-size="36.9" fill="#525252" transform="matrix(1.00, 0.00, -0.00, -1.00, 213.3, 10.6)">o</text><text xml:space="preserve" font-family="GillSans-Light,Gill Sans" font-size="36.9" fill="#525252" transform="matrix(1.00, 0.00, -0.00, -1.00, 233.3, 10.6)">r</text><text xml:space="preserve" font-family="GillSans-Light,Gill Sans" font-size="36.9" fill="#525252" transform="matrix(1.00, 0.00, -0.00, -1.00, 246.5, 10.6)">p</text><text xml:space="preserve" font-family="GillSans-Light,Gill Sans" font-size="36.9" fill="#525252" transform="matrix(1.00, 0.00, -0.00, -1.00, 265.2, 10.6)">h</text><text xml:space="preserve" font-family="GillSans-Light,Gill Sans" font-size="36.9" fill="#525252" transform="matrix(1.00, 0.00, -0.00, -1.00, 283.3, 10.6)">e</text><text xml:space="preserve" font-family="GillSans-Light,Gill Sans" font-size="36.9" fill="#525252" transform="matrix(1.00, 0.00, -0.00, -1.00, 301.0, 10.6)">r</text></g></svg>