<?xml version="1.0" encoding="UTF-8" standalone="no"?><svg xmlns="http://www.w3.org/2000/svg" xmlns:xlink="http://www.w3.org/1999/xlink" clip-rule="evenodd" stroke-miterlimit="10" viewBox="0 0 1024 768"><desc>SVG generated by Keynote</desc><defs></defs><g transform="matrix(1.00, 0.00, -0.00, -1.00, 0.0, 768.0)"><g><clipPath id="clip0x7ff519787500"><path d="M 0.0 768.0 L 1024.0 768.0 L 1024.0 0.0 L 0.0 0.0 Z M 0.0 768.0 "></path></clipPath><g clip-path="url(#clip0x7ff519787500)"><image xlink:href="../../BE03AB4A-F5E0-4685-80C7-20DCBC62631F/assets/574DCE55A4CF432400CBDDDE1DFDFC9B.jpeg" width="2048.00" height="1536.00" transform="matrix(0.50, 0.00, -0.00, -0.50, 0.0, 768.0)"></image></g></g><text xml:space="preserve" font-family="Courier,Courier" font-size="36.0" fill="#525252" transform="matrix(1.00, 0.00, -0.00, -1.00, 66.1, 593.0)">p</text><text xml:space="preserve" font-family="Courier,Courier" font-size="36.0" fill="#525252" transform="matrix(1.00, 0.00, -0.00, -1.00, 87.7, 593.0)">y</text><text xml:space="preserve" font-family="Courier,Courier" font-size="36.0" fill="#525252" transform="matrix(1.00, 0.00, -0.00, -1.00, 109.3, 593.0)">t</text><text xml:space="preserve" font-family="Courier,Courier" font-size="36.0" fill="#525252" transform="matrix(1.00, 0.00, -0.00, -1.00, 130.9, 593.0)">h</text><text xml:space="preserve" font-family="Courier,Courier" font-size="36.0" fill="#525252" transform="matrix(1.00, 0.00, -0.00, -1.00, 152.5, 593.0)">o</text><text xml:space="preserve" font-family="Courier,Courier" font-size="36.0" fill="#525252" transform="matrix(1.00, 0.00, -0.00, -1.00, 174.1, 593.0)">n</text><text xml:space="preserve" font-family="Courier,Courier" font-size="36.0" fill="#525252" transform="matrix(1.00, 0.00, -0.00, -1.00, 195.7, 593.0)"> </text><text xml:space="preserve" font-family="Courier,Courier" font-size="36.0" fill="#525252" transform="matrix(1.00, 0.00, -0.00, -1.00, 217.3, 593.0)">m</text><text xml:space="preserve" font-family="Courier,Courier" font-size="36.0" fill="#525252" transform="matrix(1.00, 0.00, -0.00, -1.00, 238.9, 593.0)">o</text><text xml:space="preserve" font-family="Courier,Courier" font-size="36.0" fill="#525252" transform="matrix(1.00, 0.00, -0.00, -1.00, 260.5, 593.0)">r</text><text xml:space="preserve" font-family="Courier,Courier" font-size="36.0" fill="#525252" transform="matrix(1.00, 0.00, -0.00, -1.00, 282.1, 593.0)">p</text><text xml:space="preserve" font-family="Courier,Courier" font-size="36.0" fill="#525252" transform="matrix(1.00, 0.00, -0.00, -1.00, 303.7, 593.0)">h</text><text xml:space="preserve" font-family="Courier,Courier" font-size="36.0" fill="#525252" transform="matrix(1.00, 0.00, -0.00, -1.00, 325.3, 593.0)">e</text><text xml:space="preserve" font-family="Courier,Courier" font-size="36.0" fill="#525252" transform="matrix(1.00, 0.00, -0.00, -1.00, 347.0, 593.0)">r</text><text xml:space="preserve" font-family="Courier,Courier" font-size="36.0" fill="#525252" transform="matrix(1.00, 0.00, -0.00, -1.00, 368.6, 593.0)">.</text><text xml:space="preserve" font-family="Courier,Courier" font-size="36.0" fill="#525252" transform="matrix(1.00, 0.00, -0.00, -1.00, 390.2, 593.0)">p</text><text xml:space="preserve" font-family="Courier,Courier" font-size="36.0" fill="#525252" transform="matrix(1.00, 0.00, -0.00, -1.00, 411.8, 593.0)">y</text><text xml:space="preserve" font-family="Courier,Courier" font-size="36.0" fill="#525252" transform="matrix(1.00, 0.00, -0.00, -1.00, 66.1, 550.0)"> </text><text xml:space="preserve" font-family="Courier,Courier" font-size="36.0" fill="#525252" transform="matrix(1.00, 0.00, -0.00, -1.00, 87.7, 550.0)"> </text><text xml:space="preserve" font-family="Courier,Courier" font-size="36.0" fill="#525252" transform="matrix(1.00, 0.00, -0.00, -1.00, 109.3, 550.0)"> </text><text xml:space="preserve" font-family="Courier,Courier" font-size="36.0" fill="#525252" transform="matrix(1.00, 0.00, -0.00, -1.00, 130.9, 550.0)"> </text><text xml:space="preserve" font-family="Courier,Courier" font-size="36.0" fill="#525252" transform="matrix(1.00, 0.00, -0.00, -1.00, 152.5, 550.0)">-</text><text xml:space="preserve" font-family="Courier,Courier" font-size="36.0" fill="#525252" transform="matrix(1.00, 0.00, -0.00, -1.00, 174.1, 550.0)">-</text><text xml:space="preserve" font-family="Courier,Courier" font-size="36.0" fill="#525252" transform="matrix(1.00, 0.00, -0.00, -1.00, 195.7, 550.0)">i</text><text xml:space="preserve" font-family="Courier,Courier" font-size="36.0" fill="#525252" transform="matrix(1.00, 0.00, -0.00, -1.00, 217.3, 550.0)">m</text><text xml:space="preserve" font-family="Courier,Courier" font-size="36.0" fill="#525252" transform="matrix(1.00, 0.00, -0.00, -1.00, 238.9, 550.0)">a</text><text xml:space="preserve" font-family="Courier,Courier" font-size="36.0" fill="#525252" transform="matrix(1.00, 0.00, -0.00, -1.00, 260.5, 550.0)">g</text><text xml:space="preserve" font-family="Courier,Courier" font-size="36.0" fill="#525252" transform="matrix(1.00, 0.00, -0.00, -1.00, 282.1, 550.0)">e</text><text xml:space="preserve" font-family="Courier,Courier" font-size="36.0" fill="#525252" transform="matrix(1.00, 0.00, -0.00, -1.00, 303.7, 550.0)">s</text><text xml:space="preserve" font-family="Courier,Courier" font-size="36.0" fill="#525252" transform="matrix(1.00, 0.00, -0.00, -1.00, 325.3, 550.0)">=</text><text xml:space="preserve" font-family="Courier,Courier" font-size="36.0" fill="#525252" transform="matrix(1.00, 0.00, -0.00, -1.00, 346.9, 550.0)">s</text><text xml:space="preserve" font-family="Courier,Courier" font-size="36.0" fill="#525252" transform="matrix(1.00, 0.00, -0.00, -1.00, 368.5, 550.0)">t</text><text xml:space="preserve" font-family="Courier,Courier" font-size="36.0" fill="#525252" transform="matrix(1.00, 0.00, -0.00, -1.00, 390.1, 550.0)">a</text><text xml:space="preserve" font-family="Courier,Courier" font-size="36.0" fill="#525252" transform="matrix(1.00, 0.00, -0.00, -1.00, 411.7, 550.0)">r</text><text xml:space="preserve" font-family="Courier,Courier" font-size="36.0" fill="#525252" transform="matrix(1.00, 0.00, -0.00, -1.00, 433.3, 550.0)">_</text><text xml:space="preserve" font-family="Courier,Courier" font-size="36.0" fill="#525252" transform="matrix(1.00, 0.00, -0.00, -1.00, 454.9, 550.0)">w</text><text xml:space="preserve" font-family="Courier,Courier" font-size="36.0" fill="#525252" transform="matrix(1.00, 0.00, -0.00, -1.00, 476.6, 550.0)">a</text><text xml:space="preserve" font-family="Courier,Courier" font-size="36.0" fill="#525252" transform="matrix(1.00, 0.00, -0.00, -1.00, 498.2, 550.0)">r</text><text xml:space="preserve" font-family="Courier,Courier" font-size="36.0" fill="#525252" transform="matrix(1.00, 0.00, -0.00, -1.00, 519.8, 550.0)">s</text><text xml:space="preserve" font-family="Courier,Courier" font-size="36.0" fill="#525252" transform="matrix(1.00, 0.00, -0.00, -1.00, 66.1, 507.0)"> </text><text xml:space="preserve" font-family="Courier,Courier" font-size="36.0" fill="#525252" transform="matrix(1.00, 0.00, -0.00, -1.00, 87.7, 507.0)"> </text><text xml:space="preserve" font-family="Courier,Courier" font-size="36.0" fill="#525252" transform="matrix(1.00, 0.00, -0.00, -1.00, 109.3, 507.0)"> </text><text xml:space="preserve" font-family="Courier,Courier" font-size="36.0" fill="#525252" transform="matrix(1.00, 0.00, -0.00, -1.00, 130.9, 507.0)"> </text><text xml:space="preserve" font-family="Courier,Courier" font-size="36.0" fill="#525252" transform="matrix(1.00, 0.00, -0.00, -1.00, 152.5, 507.0)">-</text><text xml:space="preserve" font-family="Courier,Courier" font-size="36.0" fill="#525252" transform="matrix(1.00, 0.00, -0.00, -1.00, 174.1, 507.0)">-</text><text xml:space="preserve" font-family="Courier,Courier" font-size="36.0" fill="#525252" transform="matrix(1.00, 0.00, -0.00, -1.00, 195.7, 507.0)">o</text><text xml:space="preserve" font-family="Courier,Courier" font-size="36.0" fill="#525252" transform="matrix(1.00, 0.00, -0.00, -1.00, 217.3, 507.0)">u</text><text xml:space="preserve" font-family="Courier,Courier" font-size="36.0" fill="#525252" transform="matrix(1.00, 0.00, -0.00, -1.00, 238.9, 507.0)">t</text><text xml:space="preserve" font-family="Courier,Courier" font-size="36.0" fill="#525252" transform="matrix(1.00, 0.00, -0.00, -1.00, 260.5, 507.0)">_</text><text xml:space="preserve" font-family="Courier,Courier" font-size="36.0" fill="#525252" transform="matrix(1.00, 0.00, -0.00, -1.00, 282.1, 507.0)">v</text><text xml:space="preserve" font-family="Courier,Courier" font-size="36.0" fill="#525252" transform="matrix(1.00, 0.00, -0.00, -1.00, 303.7, 507.0)">i</text><text xml:space="preserve" font-family="Courier,Courier" font-size="36.0" fill="#525252" transform="matrix(1.00, 0.00, -0.00, -1.00, 325.3, 507.0)">d</text><text xml:space="preserve" font-family="Courier,Courier" font-size="36.0" fill="#525252" transform="matrix(1.00, 0.00, -0.00, -1.00, 347.0, 507.0)">e</text><text xml:space="preserve" font-family="Courier,Courier" font-size="36.0" fill="#525252" transform="matrix(1.00, 0.00, -0.00, -1.00, 368.6, 507.0)">o</text><text xml:space="preserve" font-family="Courier,Courier" font-size="36.0" fill="#525252" transform="matrix(1.00, 0.00, -0.00, -1.00, 390.2, 507.0)">=</text><text xml:space="preserve" font-family="Courier,Courier" font-size="36.0" fill="#525252" transform="matrix(1.00, 0.00, -0.00, -1.00, 411.8, 507.0)">o</text><text xml:space="preserve" font-family="Courier,Courier" font-size="36.0" fill="#525252" transform="matrix(1.00, 0.00, -0.00, -1.00, 433.4, 507.0)">u</text><text xml:space="preserve" font-family="Courier,Courier" font-size="36.0" fill="#525252" transform="matrix(1.00, 0.00, -0.00, -1.00, 455.0, 507.0)">t</text><text xml:space="preserve" font-family="Courier,Courier" font-size="36.0" fill="#525252" transform="matrix(1.00, 0.00, -0.00, -1.00, 476.6, 507.0)">.</text><text xml:space="preserve" font-family="Courier,Courier" font-size="36.0" fill="#525252" transform="matrix(1.00, 0.00, -0.00, -1.00, 498.2, 507.0)">a</text><text xml:space="preserve" font-family="Courier,Courier" font-size="36.0" fill="#525252" transform="matrix(1.00, 0.00, -0.00, -1.00, 519.8, 507.0)">v</text><text xml:space="preserve" font-family="Courier,Courier" font-size="36.0" fill="#525252" transform="matrix(1.00, 0.00, -0.00, -1.00, 541.4, 507.0)">i</text><text xml:space="preserve" font-family="Courier,Courier" font-size="36.0" fill="#525252" transform="matrix(1.00, 0.00, -0.00, -1.00, 563.0, 507.0)"> </text><text xml:space="preserve" font-family="Courier,Courier" font-size="36.0" fill="#525252" transform="matrix(1.00, 0.00, -0.00, -1.00, 584.5, 507.0)">-</text><text xml:space="preserve" font-family="Courier,Courier" font-size="36.0" fill="#525252" transform="matrix(1.00, 0.00, -0.00, -1.00, 606.2, 507.0)">-</text><text xml:space="preserve" font-family="Courier,Courier" font-size="36.0" fill="#525252" transform="matrix(1.00, 0.00, -0.00, -1.00, 627.8, 507.0)">n</text><text xml:space="preserve" font-family="Courier,Courier" font-size="36.0" fill="#525252" transform="matrix(1.00, 0.00, -0.00, -1.00, 649.4, 507.0)">u</text><text xml:space="preserve" font-family="Courier,Courier" font-size="36.0" fill="#525252" transform="matrix(1.00, 0.00, -0.00, -1.00, 671.0, 507.0)">m</text><text xml:space="preserve" font-family="Courier,Courier" font-size="36.0" fill="#525252" transform="matrix(1.00, 0.00, -0.00, -1.00, 692.6, 507.0)">=</text><text xml:space="preserve" font-family="Courier,Courier" font-size="36.0" fill="#525252" transform="matrix(1.00, 0.00, -0.00, -1.00, 714.2, 507.0)">6</text><text xml:space="preserve" font-family="Courier,Courier" font-size="36.0" fill="#525252" transform="matrix(1.00, 0.00, -0.00, -1.00, 735.8, 507.0)">0</text><text xml:space="preserve" font-family="Courier,Courier" font-size="36.0" fill="#525252" transform="matrix(1.00, 0.00, -0.00, -1.00, 757.4, 507.0)"> </text><text xml:space="preserve" font-family="Courier,Courier" font-size="36.0" fill="#525252" transform="matrix(1.00, 0.00, -0.00, -1.00, 779.0, 507.0)">-</text><text xml:space="preserve" font-family="Courier,Courier" font-size="36.0" fill="#525252" transform="matrix(1.00, 0.00, -0.00, -1.00, 800.6, 507.0)">-</text><text xml:space="preserve" font-family="Courier,Courier" font-size="36.0" fill="#525252" transform="matrix(1.00, 0.00, -0.00, -1.00, 822.2, 507.0)">f</text><text xml:space="preserve" font-family="Courier,Courier" font-size="36.0" fill="#525252" transform="matrix(1.00, 0.00, -0.00, -1.00, 843.8, 507.0)">p</text><text xml:space="preserve" font-family="Courier,Courier" font-size="36.0" fill="#525252" transform="matrix(1.00, 0.00, -0.00, -1.00, 865.4, 507.0)">s</text><text xml:space="preserve" font-family="Courier,Courier" font-size="36.0" fill="#525252" transform="matrix(1.00, 0.00, -0.00, -1.00, 887.0, 507.0)">=</text><text xml:space="preserve" font-family="Courier,Courier" font-size="36.0" fill="#525252" transform="matrix(1.00, 0.00, -0.00, -1.00, 908.7, 507.0)">3</text><text xml:space="preserve" font-family="Courier,Courier" font-size="36.0" fill="#525252" transform="matrix(1.00, 0.00, -0.00, -1.00, 930.3, 507.0)">0</text><text xml:space="preserve" font-family="GillSans-Light,Gill Sans" font-size="55.0" fill="#525252" transform="matrix(1.00, 0.00, -0.00, -1.00, 289.8, 674.1)">D</text><text xml:space="preserve" font-family="GillSans-Light,Gill Sans" font-size="55.0" fill="#525252" transform="matrix(1.00, 0.00, -0.00, -1.00, 330.5, 674.1)">e</text><text xml:space="preserve" font-family="GillSans-Light,Gill Sans" font-size="55.0" fill="#525252" transform="matrix(1.00, 0.00, -0.00, -1.00, 356.9, 674.1)">m</text><text xml:space="preserve" font-family="GillSans-Light,Gill Sans" font-size="55.0" fill="#525252" transform="matrix(1.00, 0.00, -0.00, -1.00, 399.3, 674.1)">o</text><text xml:space="preserve" font-family="GillSans-Light,Gill Sans" font-size="55.0" fill="#525252" transform="matrix(1.00, 0.00, -0.00, -1.00, 429.1, 674.1)"> </text><text xml:space="preserve" font-family="GillSans-Light,Gill Sans" font-size="55.0" fill="#525252" transform="matrix(1.00, 0.00, -0.00, -1.00, 444.4, 674.1)">M</text><text xml:space="preserve" font-family="GillSans-Light,Gill Sans" font-size="55.0" fill="#525252" transform="matrix(1.00, 0.00, -0.00, -1.00, 487.3, 674.1)">o</text><text xml:space="preserve" font-family="GillSans-Light,Gill Sans" font-size="55.0" fill="#525252" transform="matrix(1.00, 0.00, -0.00, -1.00, 517.1, 674.1)">r</text><text xml:space="preserve" font-family="GillSans-Light,Gill Sans" font-size="55.0" fill="#525252" transform="matrix(1.00, 0.00, -0.00, -1.00, 536.8, 674.1)">p</text><text xml:space="preserve" font-family="GillSans-Light,Gill Sans" font-size="55.0" fill="#525252" transform="matrix(1.00, 0.00, -0.00, -1.00, 564.8, 674.1)">h</text><text xml:space="preserve" font-family="GillSans-Light,Gill Sans" font-size="55.0" fill="#525252" transform="matrix(1.00, 0.00, -0.00, -1.00, 591.8, 674.1)"> </text><text xml:space="preserve" font-family="GillSans-Light,Gill Sans" font-size="55.0" fill="#525252" transform="matrix(1.00, 0.00, -0.00, -1.00, 607.0, 674.1)">M</text><text xml:space="preserve" font-family="GillSans-Light,Gill Sans" font-size="55.0" fill="#525252" transform="matrix(1.00, 0.00, -0.00, -1.00, 650.0, 674.1)">o</text><text xml:space="preserve" font-family="GillSans-Light,Gill Sans" font-size="55.0" fill="#525252" transform="matrix(1.00, 0.00, -0.00, -1.00, 679.8, 674.1)">r</text><text xml:space="preserve" font-family="GillSans-Light,Gill Sans" font-size="55.0" fill="#525252" transform="matrix(1.00, 0.00, -0.00, -1.00, 698.1, 674.1)">e</text><text xml:space="preserve" font-family="GillSans-Light,Gill Sans" font-size="55.0" fill="#525252" transform="matrix(1.00, 0.00, -0.00, -1.00, 724.4, 674.1)">!</text><image xlink:href="../../422C0DA9-8960-4E48-A53C-E39A78A2267E/assets/C9DB434FADE60868BDAE2FCCE0788C0F.png" width="500.00" height="600.00" transform="matrix(0.79, 0.00, -0.00, -0.79, 313.5, 489.3)"></image></g></svg>