<?xml version="1.0" encoding="UTF-8" standalone="no"?><svg xmlns="http://www.w3.org/2000/svg" xmlns:xlink="http://www.w3.org/1999/xlink" clip-rule="evenodd" stroke-miterlimit="10" viewBox="0 0 886 121"><desc>SVG generated by Keynote</desc><defs></defs><g transform="matrix(1.00, 0.00, -0.00, -1.00, 0.0, 121.0)"><text xml:space="preserve" font-family="Courier,Courier" font-size="36.0" fill="#525252" transform="matrix(1.00, 0.00, -0.00, -1.00, 1.1, 96.0)">p</text><text xml:space="preserve" font-family="Courier,Courier" font-size="36.0" fill="#525252" transform="matrix(1.00, 0.00, -0.00, -1.00, 22.7, 96.0)">y</text><text xml:space="preserve" font-family="Courier,Courier" font-size="36.0" fill="#525252" transform="matrix(1.00, 0.00, -0.00, -1.00, 44.3, 96.0)">t</text><text xml:space="preserve" font-family="Courier,Courier" font-size="36.0" fill="#525252" transform="matrix(1.00, 0.00, -0.00, -1.00, 65.9, 96.0)">h</text><text xml:space="preserve" font-family="Courier,Courier" font-size="36.0" fill="#525252" transform="matrix(1.00, 0.00, -0.00, -1.00, 87.5, 96.0)">o</text><text xml:space="preserve" font-family="Courier,Courier" font-size="36.0" fill="#525252" transform="matrix(1.00, 0.00, -0.00, -1.00, 109.1, 96.0)">n</text><text xml:space="preserve" font-family="Courier,Courier" font-size="36.0" fill="#525252" transform="matrix(1.00, 0.00, -0.00, -1.00, 130.7, 96.0)"> </text><text xml:space="preserve" font-family="Courier,Courier" font-size="36.0" fill="#525252" transform="matrix(1.00, 0.00, -0.00, -1.00, 152.3, 96.0)">m</text><text xml:space="preserve" font-family="Courier,Courier" font-size="36.0" fill="#525252" transform="matrix(1.00, 0.00, -0.00, -1.00, 173.9, 96.0)">o</text><text xml:space="preserve" font-family="Courier,Courier" font-size="36.0" fill="#525252" transform="matrix(1.00, 0.00, -0.00, -1.00, 195.5, 96.0)">r</text><text xml:space="preserve" font-family="Courier,Courier" font-size="36.0" fill="#525252" transform="matrix(1.00, 0.00, -0.00, -1.00, 217.1, 96.0)">p</text><text xml:space="preserve" font-family="Courier,Courier" font-size="36.0" fill="#525252" transform="matrix(1.00, 0.00, -0.00, -1.00, 238.7, 96.0)">h</text><text xml:space="preserve" font-family="Courier,Courier" font-size="36.0" fill="#525252" transform="matrix(1.00, 0.00, -0.00, -1.00, 260.3, 96.0)">e</text><text xml:space="preserve" font-family="Courier,Courier" font-size="36.0" fill="#525252" transform="matrix(1.00, 0.00, -0.00, -1.00, 282.0, 96.0)">r</text><text xml:space="preserve" font-family="Courier,Courier" font-size="36.0" fill="#525252" transform="matrix(1.00, 0.00, -0.00, -1.00, 303.6, 96.0)">.</text><text xml:space="preserve" font-family="Courier,Courier" font-size="36.0" fill="#525252" transform="matrix(1.00, 0.00, -0.00, -1.00, 325.2, 96.0)">p</text><text xml:space="preserve" font-family="Courier,Courier" font-size="36.0" fill="#525252" transform="matrix(1.00, 0.00, -0.00, -1.00, 346.8, 96.0)">y</text><text xml:space="preserve" font-family="Courier,Courier" font-size="36.0" fill="#525252" transform="matrix(1.00, 0.00, -0.00, -1.00, 1.1, 53.0)"> </text><text xml:space="preserve" font-family="Courier,Courier" font-size="36.0" fill="#525252" transform="matrix(1.00, 0.00, -0.00, -1.00, 22.7, 53.0)"> </text><text xml:space="preserve" font-family="Courier,Courier" font-size="36.0" fill="#525252" transform="matrix(1.00, 0.00, -0.00, -1.00, 44.3, 53.0)"> </text><text xml:space="preserve" font-family="Courier,Courier" font-size="36.0" fill="#525252" transform="matrix(1.00, 0.00, -0.00, -1.00, 65.9, 53.0)"> </text><text xml:space="preserve" font-family="Courier,Courier" font-size="36.0" fill="#525252" transform="matrix(1.00, 0.00, -0.00, -1.00, 87.5, 53.0)">-</text><text xml:space="preserve" font-family="Courier,Courier" font-size="36.0" fill="#525252" transform="matrix(1.00, 0.00, -0.00, -1.00, 109.1, 53.0)">-</text><text xml:space="preserve" font-family="Courier,Courier" font-size="36.0" fill="#525252" transform="matrix(1.00, 0.00, -0.00, -1.00, 130.7, 53.0)">i</text><text xml:space="preserve" font-family="Courier,Courier" font-size="36.0" fill="#525252" transform="matrix(1.00, 0.00, -0.00, -1.00, 152.3, 53.0)">m</text><text xml:space="preserve" font-family="Courier,Courier" font-size="36.0" fill="#525252" transform="matrix(1.00, 0.00, -0.00, -1.00, 173.9, 53.0)">a</text><text xml:space="preserve" font-family="Courier,Courier" font-size="36.0" fill="#525252" transform="matrix(1.00, 0.00, -0.00, -1.00, 195.5, 53.0)">g</text><text xml:space="preserve" font-family="Courier,Courier" font-size="36.0" fill="#525252" transform="matrix(1.00, 0.00, -0.00, -1.00, 217.1, 53.0)">e</text><text xml:space="preserve" font-family="Courier,Courier" font-size="36.0" fill="#525252" transform="matrix(1.00, 0.00, -0.00, -1.00, 238.7, 53.0)">s</text><text xml:space="preserve" font-family="Courier,Courier" font-size="36.0" fill="#525252" transform="matrix(1.00, 0.00, -0.00, -1.00, 260.3, 53.0)">=</text><text xml:space="preserve" font-family="Courier,Courier" font-size="36.0" fill="#525252" transform="matrix(1.00, 0.00, -0.00, -1.00, 281.9, 53.0)">s</text><text xml:space="preserve" font-family="Courier,Courier" font-size="36.0" fill="#525252" transform="matrix(1.00, 0.00, -0.00, -1.00, 303.5, 53.0)">t</text><text xml:space="preserve" font-family="Courier,Courier" font-size="36.0" fill="#525252" transform="matrix(1.00, 0.00, -0.00, -1.00, 325.1, 53.0)">a</text><text xml:space="preserve" font-family="Courier,Courier" font-size="36.0" fill="#525252" transform="matrix(1.00, 0.00, -0.00, -1.00, 346.7, 53.0)">r</text><text xml:space="preserve" font-family="Courier,Courier" font-size="36.0" fill="#525252" transform="matrix(1.00, 0.00, -0.00, -1.00, 368.3, 53.0)">_</text><text xml:space="preserve" font-family="Courier,Courier" font-size="36.0" fill="#525252" transform="matrix(1.00, 0.00, -0.00, -1.00, 389.9, 53.0)">w</text><text xml:space="preserve" font-family="Courier,Courier" font-size="36.0" fill="#525252" transform="matrix(1.00, 0.00, -0.00, -1.00, 411.6, 53.0)">a</text><text xml:space="preserve" font-family="Courier,Courier" font-size="36.0" fill="#525252" transform="matrix(1.00, 0.00, -0.00, -1.00, 433.2, 53.0)">r</text><text xml:space="preserve" font-family="Courier,Courier" font-size="36.0" fill="#525252" transform="matrix(1.00, 0.00, -0.00, -1.00, 454.8, 53.0)">s</text><text xml:space="preserve" font-family="Courier,Courier" font-size="36.0" fill="#525252" transform="matrix(1.00, 0.00, -0.00, -1.00, 1.1, 10.0)"> </text><text xml:space="preserve" font-family="Courier,Courier" font-size="36.0" fill="#525252" transform="matrix(1.00, 0.00, -0.00, -1.00, 22.7, 10.0)"> </text><text xml:space="preserve" font-family="Courier,Courier" font-size="36.0" fill="#525252" transform="matrix(1.00, 0.00, -0.00, -1.00, 44.3, 10.0)"> </text><text xml:space="preserve" font-family="Courier,Courier" font-size="36.0" fill="#525252" transform="matrix(1.00, 0.00, -0.00, -1.00, 65.9, 10.0)"> </text><text xml:space="preserve" font-family="Courier,Courier" font-size="36.0" fill="#525252" transform="matrix(1.00, 0.00, -0.00, -1.00, 87.5, 10.0)">-</text><text xml:space="preserve" font-family="Courier,Courier" font-size="36.0" fill="#525252" transform="matrix(1.00, 0.00, -0.00, -1.00, 109.1, 10.0)">-</text><text xml:space="preserve" font-family="Courier,Courier" font-size="36.0" fill="#525252" transform="matrix(1.00, 0.00, -0.00, -1.00, 130.7, 10.0)">o</text><text xml:space="preserve" font-family="Courier,Courier" font-size="36.0" fill="#525252" transform="matrix(1.00, 0.00, -0.00, -1.00, 152.3, 10.0)">u</text><text xml:space="preserve" font-family="Courier,Courier" font-size="36.0" fill="#525252" transform="matrix(1.00, 0.00, -0.00, -1.00, 173.9, 10.0)">t</text><text xml:space="preserve" font-family="Courier,Courier" font-size="36.0" fill="#525252" transform="matrix(1.00, 0.00, -0.00, -1.00, 195.5, 10.0)">_</text><text xml:space="preserve" font-family="Courier,Courier" font-size="36.0" fill="#525252" transform="matrix(1.00, 0.00, -0.00, -1.00, 217.1, 10.0)">v</text><text xml:space="preserve" font-family="Courier,Courier" font-size="36.0" fill="#525252" transform="matrix(1.00, 0.00, -0.00, -1.00, 238.7, 10.0)">i</text><text xml:space="preserve" font-family="Courier,Courier" font-size="36.0" fill="#525252" transform="matrix(1.00, 0.00, -0.00, -1.00, 260.3, 10.0)">d</text><text xml:space="preserve" font-family="Courier,Courier" font-size="36.0" fill="#525252" transform="matrix(1.00, 0.00, -0.00, -1.00, 282.0, 10.0)">e</text><text xml:space="preserve" font-family="Courier,Courier" font-size="36.0" fill="#525252" transform="matrix(1.00, 0.00, -0.00, -1.00, 303.6, 10.0)">o</text><text xml:space="preserve" font-family="Courier,Courier" font-size="36.0" fill="#525252" transform="matrix(1.00, 0.00, -0.00, -1.00, 325.2, 10.0)">=</text><text xml:space="preserve" font-family="Courier,Courier" font-size="36.0" fill="#525252" transform="matrix(1.00, 0.00, -0.00, -1.00, 346.8, 10.0)">o</text><text xml:space="preserve" font-family="Courier,Courier" font-size="36.0" fill="#525252" transform="matrix(1.00, 0.00, -0.00, -1.00, 368.4, 10.0)">u</text><text xml:space="preserve" font-family="Courier,Courier" font-size="36.0" fill="#525252" transform="matrix(1.00, 0.00, -0.00, -1.00, 390.0, 10.0)">t</text><text xml:space="preserve" font-family="Courier,Courier" font-size="36.0" fill="#525252" transform="matrix(1.00, 0.00, -0.00, -1.00, 411.6, 10.0)">.</text><text xml:space="preserve" font-family="Courier,Courier" font-size="36.0" fill="#525252" transform="matrix(1.00, 0.00, -0.00, -1.00, 433.2, 10.0)">a</text><text xml:space="preserve" font-family="Courier,Courier" font-size="36.0" fill="#525252" transform="matrix(1.00, 0.00, -0.00, -1.00, 454.8, 10.0)">v</text><text xml:space="preserve" font-family="Courier,Courier" font-size="36.0" fill="#525252" transform="matrix(1.00, 0.00, -0.00, -1.00, 476.4, 10.0)">i</text><text xml:space="preserve" font-family="Courier,Courier" font-size="36.0" fill="#525252" transform="matrix(1.00, 0.00, -0.00, -1.00, 498.0, 10.0)"> </text><text xml:space="preserve" font-family="Courier,Courier" font-size="36.0" fill="#525252" transform="matrix(1.00, 0.00, -0.00, -1.00, 519.5, 10.0)">-</text><text xml:space="preserve" font-family="Courier,Courier" font-size="36.0" fill="#525252" transform="matrix(1.00, 0.00, -0.00, -1.00, 541.2, 10.0)">-</text><text xml:space="preserve" font-family="Courier,Courier" font-size="36.0" fill="#525252" transform="matrix(1.00, 0.00, -0.00, -1.00, 562.8, 10.0)">n</text><text xml:space="preserve" font-family="Courier,Courier" font-size="36.0" fill="#525252" transform="matrix(1.00, 0.00, -0.00, -1.00, 584.4, 10.0)">u</text><text xml:space="preserve" font-family="Courier,Courier" font-size="36.0" fill="#525252" transform="matrix(1.00, 0.00, -0.00, -1.00, 606.0, 10.0)">m</text><text xml:space="preserve" font-family="Courier,Courier" font-size="36.0" fill="#525252" transform="matrix(1.00, 0.00, -0.00, -1.00, 627.6, 10.0)">=</text><text xml:space="preserve" font-family="Courier,Courier" font-size="36.0" fill="#525252" transform="matrix(1.00, 0.00, -0.00, -1.00, 649.2, 10.0)">6</text><text xml:space="preserve" font-family="Courier,Courier" font-size="36.0" fill="#525252" transform="matrix(1.00, 0.00, -0.00, -1.00, 670.8, 10.0)">0</text><text xml:space="preserve" font-family="Courier,Courier" font-size="36.0" fill="#525252" transform="matrix(1.00, 0.00, -0.00, -1.00, 692.4, 10.0)"> </text><text xml:space="preserve" font-family="Courier,Courier" font-size="36.0" fill="#525252" transform="matrix(1.00, 0.00, -0.00, -1.00, 714.0, 10.0)">-</text><text xml:space="preserve" font-family="Courier,Courier" font-size="36.0" fill="#525252" transform="matrix(1.00, 0.00, -0.00, -1.00, 735.6, 10.0)">-</text><text xml:space="preserve" font-family="Courier,Courier" font-size="36.0" fill="#525252" transform="matrix(1.00, 0.00, -0.00, -1.00, 757.2, 10.0)">f</text><text xml:space="preserve" font-family="Courier,Courier" font-size="36.0" fill="#525252" transform="matrix(1.00, 0.00, -0.00, -1.00, 778.8, 10.0)">p</text><text xml:space="preserve" font-family="Courier,Courier" font-size="36.0" fill="#525252" transform="matrix(1.00, 0.00, -0.00, -1.00, 800.4, 10.0)">s</text><text xml:space="preserve" font-family="Courier,Courier" font-size="36.0" fill="#525252" transform="matrix(1.00, 0.00, -0.00, -1.00, 822.0, 10.0)">=</text><text xml:space="preserve" font-family="Courier,Courier" font-size="36.0" fill="#525252" transform="matrix(1.00, 0.00, -0.00, -1.00, 843.7, 10.0)">3</text><text xml:space="preserve" font-family="Courier,Courier" font-size="36.0" fill="#525252" transform="matrix(1.00, 0.00, -0.00, -1.00, 865.3, 10.0)">0</text></g></svg>